<?xml version="1.0" encoding="utf-8"?>
<!-- Generator: Adobe Illustrator 24.0.0, SVG Export Plug-In . SVG Version: 6.00 Build 0)  -->
<svg version="1.1" id="Capa_1" xmlns="http://www.w3.org/2000/svg" xmlns:xlink="http://www.w3.org/1999/xlink" x="0px" y="0px"
	 viewBox="0 0 984.4 1000" style="enable-background:new 0 0 984.4 1000;" xml:space="preserve">
<style type="text/css">
	.st0{fill:#909090;}
	.st1{fill:#FEFEFE;}
</style>
<g id="bcMap">
	<path class="st0" d="M0.1,408c29.5,4.1,58.9,8.7,88.8,10.1c36.4,1.8,72.8,4.4,109.1,7.7c33.8,3.1,67.7,5.8,101.6,8.3
		c29.1,2.1,58,4.8,86.6,11.2c1.9,0.4,3.6,0,5.4-0.4c68.4-17.3,137-34.1,205.2-52c19.6-5.1,38.3-13.5,57.4-20.5
		c3.3-1.2,6.5-2.8,9.8-3.6c20.7-5,37.2-17.7,53.4-30.4c5.4-4.2,9.9-10.1,14.9-15.1c23.9-24,52.7-41,81.1-58.7
		c28.8-18,57.5-36.2,86.3-54.2c2-1.3,3.5-2.9,4.7-5c11.2-18.5,22.7-36.8,33.5-55.6c6.3-11,9.4-23.5,14.1-35.2
		c3.4-8.5,6.8-17,9.8-25.7c2.7-7.7,2.9-16,4-24.1c3-20.8,5.5-41.6,8.2-62.4c0.1-0.8,0-1.7,0-2.5c4.3,0,8.7,0,13,0
		c-2.3,9.4-2.6,19.1-4,28.6c-2.9,19.6-5.1,39.3-8.3,58.8c-1.4,8.5-5.8,16.3-8.8,24.4c-3,8.3-6.5,16.4-9.2,24.8
		c-7,21.6-21.6,38.9-31.9,58.6c-8.3,16.1-20.6,27.1-36,36.5c-39.4,23.7-78,48.7-116.7,73.4c-10.1,6.5-18.2,15.6-27.4,23.2
		c-0.6,0.5-1.3,1.1-1.8,1.7c-3.3,3.2-9.4,5.6-9.4,9.6c0,3.8,4.6,7.7,7.4,11.4c28,38.1,56,76.2,84,114.3c3.3,4.5,3.1,5.8-1.4,9.4
		c-16.3,12.7-32.4,25.5-48.8,38.2c-2.6,2-2.8,3.2-0.8,5.9c14.4,19.8,28.7,39.6,43,59.5c3.6,4.9,3.3,6-1.9,9.4
		c-7.7,5-15.2,10.2-23,15c-3.5,2.1-3.3,3.5-0.6,6.3c28.1,29.1,56.2,58.3,84.2,87.5c16.3,17,32.4,34,48.6,51c0.6,0.6,1.2,1.2,1.7,1.8
		c1.3,1.6,1.5,3.3,0,4.9c-1.6,1.6-3.5,1.4-4.9,0c-2.8-2.6-5.3-5.5-8-8.3c-39.3-40.8-78.9-81.3-117.5-122.7
		c-10.4-11.1-21.4-18.4-36.3-21.3c-13.5-2.7-26.7-6.9-40-10.7c-3.4-1-5.8-0.8-7.5,2.6c-0.7,1.3-1.8,2.4-2.7,3.6
		c-4.2,5.7-10.6,6.9-16.5,3.2c-2.4-1.5-3.3-3.8-2.7-6.5c0.6-2.5,2.3-4,4.9-4.3c0.7-0.1,1.3-0.1,2,0c2.1,0.3,3.7-0.6,4.4-2.5
		c0.7-1.9-1.1-2.6-2.2-3.5c-4.6-3.8-9.1-7.8-13.9-11.3c-6.8-5-12.2-11.4-17.1-18c-5.5-7.5-13.2-11.5-21.3-15c-0.5-0.4-1-0.8-1.4-0.1
		c-0.1,0.2,0.3,0.7,0.4,1.1c6.7,11.5,14.8,22.1,22.4,33c25.7,37.1,51.6,74,77.6,110.9c3.2,4.5,3.1,8.1,0.3,12.7
		c-30.1,50.1-60.1,100.3-90.1,150.4c-4.1,6.9-3.1,14.9-3.9,22.3c-3.2,27.4-6,54.9-8.8,82.3c-1.7,15.9-3.3,31.8-4.9,47.6
		c-4.3,0-8.7,0-13,0c2.6-15.4,3.6-31,5.4-46.6c2.7-24,5.1-48,7.7-71.9c1.1-10.1,2.2-20.2,3.2-30.3c0.3-2.9,1.2-5.5,2.7-7.9
		c29.6-49.4,59.3-98.9,89-148.2c1.7-2.8,1.7-4.8-0.2-7.6c-37.5-53.4-74.9-107-112.2-160.5c-1.6-2.2-3.7-3.2-6-4.2
		c-42.6-19-88.1-27.9-133.1-38.8c-25.3-6.1-50.5-12-75.8-18.3c-5.3-1.3-10.4-3.6-15.5-5.5c-16.6-6.1-34-8.3-51.3-10.2
		c-30.4-3.3-61-5.3-91.5-7.9c-25.1-2.1-50.1-4.1-75.2-6.2c-36.7-3.1-73.5-4.4-110.2-7.3c-18.4-1.4-36.7-4.7-55-7.1
		c-2.3-0.3-4.6-0.9-6.9-0.4C0.1,416.7,0.1,412.3,0.1,408z M400.4,450.3c3.9,2.3,7,3.2,10.2,4c37,8.9,74.1,17.8,111.1,26.9
		c17.4,4.3,35.3,7.2,52.2,13.3c27.8,10.1,55.9,19.8,81.3,35.5c2.5,1.5,4.5,1.3,6.9-0.2c6-3.6,12-7.2,18.2-10.5
		c3.5-1.8,3.5-3.4,1.3-6.4c-26.4-36.4-52.6-72.9-78.9-109.4c-1.9-2.6-3.6-3.5-7-2.6c-54.6,14-109.3,27.8-164,41.6
		C421.6,444.9,411.6,447.5,400.4,450.3z M743.2,478.7c-0.5-1.1-1.1-2.4-1.8-3.7c-17.4-33.9-34.8-67.8-52-101.8
		c-2.1-4.1-3.9-4.6-8-3.1c-23,8.7-46.1,17.2-69.3,25.5c-4.4,1.6-4.5,2.8-1.9,6.4c13.4,18.2,26.5,36.7,39.7,55
		c12.6,17.5,25.3,35.1,37.9,52.6c1.5,2,2.6,3.6,5.5,1.8c15.8-9.9,31.7-19.6,47.5-29.5C741.9,481.2,743.4,480.7,743.2,478.7z
		 M724.1,343c-0.8,0.5-1.9,1.1-3,1.8c-8,5.7-15.8,11.6-24,17c-3.5,2.3-3.4,4.3-1.7,7.7c17.5,33.9,34.8,67.8,52,101.9
		c1.9,3.8,3.3,3.9,6.4,1.3c12.8-10.4,25.6-20.7,38.6-30.9c2.8-2.2,3.4-3.8,1.2-6.9c-22-29.9-44-59.8-66-89.7
		C726.9,344.3,726.2,343.1,724.1,343z M716.2,583.4c21.9,5.9,42.7,11.5,63.5,17.2c1.9,0.5,3.2-0.4,4.6-1.3
		c7.7-5,15.3-10.1,23.1-14.9c3.1-1.9,2.7-3.3,0.9-5.8c-9.7-13.3-19.4-26.6-28.9-40c-2.2-3.1-3.9-3.2-6.9-1.3
		c-8.9,5.6-17.7,11.2-26.9,16.3C733,560.6,726.6,573.2,716.2,583.4z M737.9,549.9c0.4-0.2,1-0.5,1.5-0.9c9.8-6,19.6-12,29.4-17.9
		c2.8-1.6,2.8-3.2,1-5.5c-4.3-5.5-8-11.4-11.1-17.7c-3.1-6.3-6.7-12.3-9.8-18.5c-1.3-2.6-2.5-2.9-4.9-1.3
		c-10.7,6.8-21.4,13.4-32.2,20c-2.4,1.5-2.7,2.9-1.1,5.2c8.1,11.6,16.2,23.2,24.2,34.8C735.7,549,736.2,550.2,737.9,549.9z
		 M701.6,514.7c-0.7,0.4-1.8,0.9-2.7,1.5c-8.5,5-16.9,10-25.4,14.9c-6.4,3.8-6.2,3.6-1.8,9.6c10.3,13.9,23.3,25,36.8,35.6
		c2,1.5,3.2,1.8,4.9-0.3c5.3-6.4,10.7-12.7,16.2-19c1.4-1.6,1.2-2.7,0-4.3c-8.4-12-16.7-24-25.1-36
		C704,515.8,703.4,514.7,701.6,514.7z M818,468.6c-0.5-0.8-1.1-1.8-1.8-2.8c-4.4-6-9-12-13.3-18.1c-1.9-2.8-3.3-2.8-5.8-0.7
		c-13.5,11-27.2,21.9-41,32.7c-2.2,1.8-2.9,3.2-1.4,5.8c3.8,6.8,7.5,13.7,11,20.7c1.3,2.6,2.3,3,4.7,1.1
		c15-11.9,30.1-23.6,45.1-35.5C816.7,471,818,470.4,818,468.6z"/>
	<path class="st1" d="M645.5,540.4c-0.2-0.4-0.6-0.9-0.4-1.1c0.5-0.7,1-0.3,1.4,0.1C646.1,539.8,645.8,540.1,645.5,540.4z"/>
</g>
<path id="mina" class="st0" d="M936.1,774.6l-9.5-5.5c-0.9-0.5-2.2-0.2-2.6,0.7c-1.5,3-2.3,6.2-2.6,9.4c-0.1,1,0.8,1.8,1.8,1.8h11.1
	c0.9,0,1.6-0.7,1.7-1.5c0.1-1,0.4-1.9,0.7-2.8C937.1,775.9,936.8,775,936.1,774.6L936.1,774.6z M957.8,754.8
	c-2.3-0.5-4.7-0.8-7.2-0.8s-4.9,0.3-7.2,0.8c-1,0.2-1.6,1.3-1.2,2.3l4.3,11c0.3,0.7,0.9,1.1,1.7,1.1h4.8c0.8,0,1.5-0.4,1.7-1.1
	l4.3-11C959.4,756.1,958.9,755.1,957.8,754.8L957.8,754.8z M934.1,784.4h-11c-1,0-1.8,0.8-1.8,1.7v6.8c0,0.9,0.8,1.7,1.8,1.7h11
	c1,0,1.8-0.8,1.8-1.7v-6.8C936,785.2,935.2,784.4,934.1,784.4z M934.1,797.9h-11c-1,0-1.8,0.8-1.8,1.7v6.8c0,0.9,0.8,1.7,1.8,1.7h11
	c1,0,1.8-0.8,1.8-1.7v-6.8C936,798.7,935.2,797.9,934.1,797.9z M943,768l-4.2-9.6c-0.4-0.9-1.6-1.4-2.6-0.9
	c-3.1,1.6-5.9,3.8-8.2,6.3c-0.7,0.8-0.4,2,0.5,2.5l9.5,5.5c0.7,0.4,1.7,0.3,2.3-0.3c0.6-0.5,1.2-1,1.9-1.5
	C943,769.5,943.3,768.7,943,768L943,768z M966.9,781H978c1,0,1.9-0.8,1.8-1.8c-0.2-3.3-1.1-6.5-2.6-9.4c-0.5-0.9-1.7-1.2-2.6-0.7
	l-9.5,5.5c-0.8,0.4-1,1.3-0.7,2.1c0.3,0.9,0.6,1.9,0.7,2.8C965.3,780.4,966,781,966.9,781z M973.1,763.8c-2.3-2.6-5.1-4.7-8.2-6.3
	c-0.9-0.5-2.2-0.1-2.6,0.9l-4.2,9.6c-0.3,0.8,0,1.6,0.7,2c0.7,0.4,1.3,0.9,1.9,1.5c0.6,0.6,1.6,0.7,2.3,0.3l9.5-5.5
	C973.6,765.8,973.8,764.6,973.1,763.8L973.1,763.8z M978.1,784.4h-11c-1,0-1.8,0.8-1.8,1.7v6.8c0,0.9,0.8,1.7,1.8,1.7h11
	c1,0,1.8-0.8,1.8-1.7v-6.8C979.9,785.2,979.1,784.4,978.1,784.4z M978.1,797.9h-11c-1,0-1.8,0.8-1.8,1.7v6.8c0,0.9,0.8,1.7,1.8,1.7
	h11c1,0,1.8-0.8,1.8-1.7v-6.8C979.9,798.7,979.1,797.9,978.1,797.9z M948.8,772.7v31.1c0,0.5,0.4,0.8,0.9,0.8h1.8
	c0.5,0,0.9-0.4,0.9-0.8v-31.1c-0.6-0.1-1.2-0.2-1.8-0.2C950,772.6,949.4,772.6,948.8,772.7z M941.5,777.1v26.7
	c0,0.5,0.4,0.8,0.9,0.8h1.8c0.5,0,0.9-0.4,0.9-0.8V774C943.7,774.8,942.4,775.8,941.5,777.1L941.5,777.1z M956.1,774v29.9
	c0,0.5,0.4,0.8,0.9,0.8h1.8c0.5,0,0.9-0.4,0.9-0.8v-26.7C958.8,775.8,957.6,774.8,956.1,774L956.1,774z"/>
<path id="hospital" class="st0" d="M98.7,372.8l-23.6,20.8c-0.2,0.2-0.4,0.2-0.6,0.4v20c0,1,0.8,1.7,1.7,1.7h45c1,0,1.7-0.8,1.7-1.7
	v-20c-0.2-0.1-0.4-0.2-0.6-0.3L98.7,372.8z M109.1,401c0,0.5-0.4,0.9-0.9,0.9h-6.1v6.1c0,0.5-0.4,0.9-0.9,0.9h-5.2
	c-0.5,0-0.9-0.4-0.9-0.9v-6.1h-6.1c-0.5,0-0.9-0.4-0.9-0.9v-5.2c0-0.5,0.4-0.9,0.9-0.9h6.1v-6.1c0-0.5,0.4-0.9,0.9-0.9h5.2
	c0.5,0,0.9,0.4,0.9,0.9v6.1h6.1c0.5,0,0.9,0.4,0.9,0.9V401z M129.3,385.9l-27.7-24.4c-1.6-1.5-4.1-1.5-5.8,0l-27.7,24.4
	c-0.7,0.6-0.8,1.7-0.1,2.4c0,0,0,0,0,0l2.3,2.6c0.6,0.7,1.7,0.8,2.4,0.1c0,0,0,0,0,0l24.8-21.9c0.7-0.6,1.6-0.6,2.3,0l24.8,21.9
	c0.7,0.6,1.8,0.6,2.4-0.1c0,0,0,0,0,0l2.3-2.6C130,387.6,130,386.5,129.3,385.9z"/>
</svg>
